<svg version="1" xmlns="http://www.w3.org/2000/svg" width="400" height="400" viewBox="0 0 300.000000 300.000000"><path d="M0 76.2c0 41.9.2 75.9.4 75.7.2-.2 14.3-22 31.3-48.4 59.5-92.4 54.4-84.8 55.8-82.8.6 1 11.9 18.9 25.1 39.7 13.1 20.9 34.7 55.1 47.9 76l24.1 38.1 57.7.3 57.7.2V0H0v76.2z"/><path d="M77.5 60.3C67.2 76.2 44.3 111 19.6 148.4L-.1 178.3l.3 6.1.3 6.1 42.9-65.3L86.3 60l3.2 4.7c1.7 2.7 12.6 19.4 24.1 37.3 11.5 17.8 32 49.5 45.5 70.5l24.6 38 58.2.3 58.1.2v-17H180.2l-13.3-20.8C106.3 78.4 86.7 48 86.1 48c-.3 0-4.2 5.5-8.6 12.3z"/><path d="M75.4 93.1c-5.9 9-25.3 38.8-43.1 66.2L-.1 209.1l.3 5.5.3 5.6 43-66.5c23.6-36.6 43.2-66.3 43.5-66 .3.2 21.4 33.6 47 74.1l46.5 73.7 59.8.3 59.7.2v-13H181.2l-32.8-50.8c-18-27.9-38.8-60.2-46.2-71.7-7.5-11.6-14.1-21.6-14.8-22.4-1.1-1.2-3.1 1.3-12 15z"/><path d="M85.3 100.2c-.6.7-19.9 31-42.9 67.3-39 61.4-41.9 66.3-42.2 71l-.3 5L6.8 233c3.7-5.8 23.2-35.7 43.2-66.5 19.9-30.8 36.4-56.1 36.5-56.3.3-.3 23.9 36.9 70.1 110l26.9 42.7 58.3.1H300v-16l-60.1-.2-60.1-.3-46.3-73.4C108 132.8 86.9 99.6 86.7 99.4c-.2-.3-.9.1-1.4.8z"/><path d="M77.7 129.2c-4.7 7.3-24.1 37.6-43.1 67.3L0 250.5V300h300v-32l-53.7-.1c-56.4-.1-65.1-.3-65.6-1-.3-.4-13.7-21.9-66.5-106.9-14.5-23.4-26.8-42.9-27.2-43.3-.4-.5-4.6 5.2-9.3 12.5zm18.1 36.7c10.8 5.6 17.2 18.8 17.2 35.5 0 34.5-27.5 51-44.7 26.9-5.5-7.8-7.6-16.5-7.1-29.2.4-9.3.8-11.6 3.5-17.2 5.6-12.1 12.9-17.8 22.6-17.9 2.8 0 6.3.8 8.5 1.9z"/><path d="M81 173.2c-19.1 9.7-19.1 48.9 0 58.5 5.5 2.9 8.2 2.9 13.8.2 8.7-4.2 14.4-15.9 14.4-29.4 0-13.5-5.7-25.2-14.4-29.4-5.6-2.7-8.3-2.7-13.8.1z"/></svg>