<svg version="1" xmlns="http://www.w3.org/2000/svg" width="400" height="400" viewBox="0 0 300.000000 300.000000"><path d="M143.2 1.7c-4 2-7.1 6.1-7.3 9.9-.3 3.6 1 9.5 2.4 11.2 1.3 1.7.9 1.9-4.3 2.7-12.6 1.8-25.3 5.7-37.2 11.5-10.7 5.3-18.6 10.8-27.6 19.2l-3.4 3.1 3.4 3.1c8.3 7.6 7.1 7.4 12.4 2.7 10.3-9.1 26.1-17.6 39.7-21.6 32-9.3 68.3-1.7 93.4 19.4 4 3.4 7.8 6.1 8.4 6.1 1.4 0 10.8-7.2 10.9-8.3 0-1.7-12.4-12.5-19.5-16.9-10.7-6.7-26.3-13.7-33.6-15.2-1.3-.3-6.2-1.2-10.9-2.1-4.7-1-8.6-1.8-8.8-2-.2-.2.4-1.8 1.3-3.6C169 8.4 156-4.6 143.2 1.7z"/><path d="M137.5 60.7c-23.7 4.9-36.3 11.3-50.4 25.4-9.1 9-14.7 17.6-21.2 32.4-1.1 2.5-3.6 12.8-4.3 17.9-.8 5.2-.9 20.1-.1 25.1 4.3 28.2 20.9 52.3 45.5 66.3 6.9 3.9 21.5 8.7 30 10 6.6 1 23.1.8 28.5-.3 19.7-4 35-12.1 48.6-25.7 19.3-19.5 28.3-46.5 24.7-74.5-3-23.6-15.5-44.9-35.1-59.6-10.9-8.2-22.5-13.4-36.2-16.3-3.6-.7-27.2-1.3-30-.7z"/><path d="M51 76.7c-4.3 6-14.6 25.6-15.5 29.6-.3 1.2-1.6 6.2-2.9 11.2-1.4 4.9-2.8 11.6-3.2 14.7l-.6 5.7-4-1.6c-13.7-5.5-25.7 8-18.3 20.5 3.4 5.7 10.3 7.9 17.4 5.5 2.4-.8 4.4-1.3 4.6-1.1.1.2.5 2.5.9 5.3 1.9 15.4 6.9 30.9 14.6 45 3.6 6.7 8.2 13.5 10.6 15.9 1.7 1.8 2.3 1.4 9.8-4.8l2.9-2.4-5.3-8.3C48.6 191 42.8 170.6 43.5 147c.8-23.2 6.5-41.9 18.4-59.5 2.3-3.3 4.1-6.5 4.1-7 0-1-9.3-9.5-10.4-9.5-.3 0-2.3 2.6-4.6 5.7zM239.2 76c-2.8 2.3-5.2 4.8-5.2 5.5 0 .8 1.9 4.2 4.1 7.6 6 8.9 11.5 21.5 14.5 32.7 2.1 7.7 2.7 12.6 3 23.7.1 7.7-.1 16.2-.6 19-.5 2.7-1.2 6.8-1.5 9-1.7 10.3-12.9 36.8-16.5 39-.6.4-1.7 2-2.6 3.7l-1.6 3.2 5.3 4.7c3 2.6 5.7 4.5 6 4.3 1.5-.9 9.9-14.4 13.8-22.1 4.7-9.5 10.6-28.1 11.6-37.1.4-3.4 1-6.4 1.5-6.7.4-.2 2.4.5 4.6 1.5 8.8 4.5 17.4.5 20-9.4 3.1-11.7-8.5-20.8-20-15.7-2.5 1.1-4.6 1.7-4.7 1.3 0-.4-.2-1.4-.3-2.2-.2-.8-.6-3.8-1-6.5-1.4-11.4-4.9-23.5-10.3-35.5-2.2-5.1-9.9-18-12.5-21.3l-2.3-2.9-5.3 4.2zM71.6 235.8l-5.7 4.7 3.8 3.4c17.9 16 41.4 27.2 62.3 29.7 6.5.7 7.4 1.2 6.2 2.7-2.9 3.6-3.1 12.9-.4 16.6 4.6 6.2 11.2 8.1 18.4 5.3 6.8-2.7 9.7-11.6 6.4-19.6-.9-2.1-1.6-3.9-1.6-4.1 0-.1 1.2-.2 2.8-.3 3.3-.1 14.4-2.6 23.4-5.3 13.2-4 34.1-16.4 42.9-25.5l3.3-3.4-4.9-4.5c-2.8-2.5-5.4-4.5-5.8-4.5-.4 0-3.9 2.5-7.7 5.6-13.4 10.8-30.2 18.6-46.6 21.8-5.4 1-12.3 1.4-21.4 1.2-25.6-.7-44.5-8.1-66.5-26l-3.1-2.5-5.8 4.7z"/></svg>